<mxfile host="app.diagrams.net" modified="2023-04-22T12:28:11.402Z" agent="Mozilla/5.0 (Macintosh; Intel Mac OS X 10_15_7) AppleWebKit/537.36 (KHTML, like Gecko) Chrome/112.0.0.0 Safari/537.36" etag="YCW44j5f78tnsxU95k4s" version="21.2.1" type="github">
  <diagram name="Страница 1" id="mwhdiYtiQBZuIUtG-Tc5">
    <mxGraphModel dx="1434" dy="708" grid="1" gridSize="10" guides="1" tooltips="1" connect="1" arrows="1" fold="1" page="1" pageScale="1" pageWidth="827" pageHeight="1169" math="0" shadow="0">
      <root>
        <mxCell id="0" />
        <mxCell id="1" parent="0" />
        <mxCell id="4PpkzsIRz_B8Op7dX_ft-18" style="edgeStyle=orthogonalEdgeStyle;rounded=0;orthogonalLoop=1;jettySize=auto;html=1;entryX=0.429;entryY=1.033;entryDx=0;entryDy=0;entryPerimeter=0;" edge="1" parent="1" source="4PpkzsIRz_B8Op7dX_ft-4" target="4PpkzsIRz_B8Op7dX_ft-17">
          <mxGeometry relative="1" as="geometry">
            <mxPoint x="350" y="140" as="targetPoint" />
          </mxGeometry>
        </mxCell>
        <mxCell id="4PpkzsIRz_B8Op7dX_ft-4" value="Pages" style="swimlane;fontStyle=0;childLayout=stackLayout;horizontal=1;startSize=30;horizontalStack=0;resizeParent=1;resizeParentMax=0;resizeLast=0;collapsible=1;marginBottom=0;whiteSpace=wrap;html=1;" vertex="1" parent="1">
          <mxGeometry x="40" y="170" width="310" height="360" as="geometry" />
        </mxCell>
        <mxCell id="4PpkzsIRz_B8Op7dX_ft-5" value="&lt;code&gt;title: String&lt;/code&gt;" style="text;strokeColor=none;fillColor=none;align=left;verticalAlign=middle;spacingLeft=4;spacingRight=4;overflow=hidden;points=[[0,0.5],[1,0.5]];portConstraint=eastwest;rotatable=0;whiteSpace=wrap;html=1;" vertex="1" parent="4PpkzsIRz_B8Op7dX_ft-4">
          <mxGeometry y="30" width="310" height="30" as="geometry" />
        </mxCell>
        <mxCell id="4PpkzsIRz_B8Op7dX_ft-6" value="route: String" style="text;strokeColor=none;fillColor=none;align=left;verticalAlign=middle;spacingLeft=4;spacingRight=4;overflow=hidden;points=[[0,0.5],[1,0.5]];portConstraint=eastwest;rotatable=0;whiteSpace=wrap;html=1;" vertex="1" parent="4PpkzsIRz_B8Op7dX_ft-4">
          <mxGeometry y="60" width="310" height="30" as="geometry" />
        </mxCell>
        <mxCell id="4PpkzsIRz_B8Op7dX_ft-7" value="inputs: [&lt;br&gt;&amp;nbsp; &amp;nbsp; &amp;nbsp;{&lt;br&gt;&lt;span style=&quot;&quot;&gt;	&lt;/span&gt;title: String,&lt;br&gt;&lt;br&gt;&lt;span style=&quot;&quot;&gt;	&lt;/span&gt;value: String&lt;br&gt;&lt;span style=&quot;&quot;&gt;	&lt;/span&gt;&lt;br&gt;type: String -&amp;gt; [bigText,&amp;nbsp;&lt;span style=&quot;background-color: initial;&quot; class=&quot;&quot;&gt;&lt;span style=&quot;background-color: initial;&quot; class=&quot;&quot;&gt;middleText&lt;/span&gt;&lt;span style=&quot;background-color: initial;&quot; class=&quot;&quot;&gt;,&lt;span style=&quot;background-color: initial;&quot; class=&quot;&quot;&gt;smallText&lt;/span&gt;&lt;span style=&quot;background-color: initial;&quot; class=&quot;&quot;&gt;,&amp;nbsp;&lt;span style=&quot;background-color: initial;&quot; class=&quot;hljs-built_in&quot;&gt;number&lt;/span&gt;&lt;span style=&quot;background-color: initial;&quot; class=&quot;&quot;&gt;,&lt;span style=&quot;background-color: initial;&quot; class=&quot;line&quot; data-testid=&quot;content&quot; lang=&quot;typescript&quot; id=&quot;LC10&quot;&gt;&lt;span class=&quot;&quot;&gt;&amp;nbsp;&lt;/span&gt;&lt;span class=&quot;&quot;&gt;email&lt;/span&gt;&lt;span class=&quot;&quot;&gt;,&lt;/span&gt;&lt;/span&gt;&lt;span style=&quot;background-color: initial;&quot;&gt;&amp;nbsp;&lt;/span&gt;&lt;/span&gt;&lt;/span&gt;&lt;/span&gt;&lt;/span&gt;&lt;span style=&quot;background-color: initial;&quot; class=&quot;&quot;&gt;file&lt;/span&gt;&lt;span style=&quot;background-color: initial;&quot; class=&quot;&quot;&gt;,&lt;/span&gt;]&lt;br&gt;&lt;span style=&quot;&quot;&gt;	&lt;/span&gt;}]&lt;br&gt;&lt;br&gt;compId: uuid" style="text;strokeColor=none;fillColor=none;align=left;verticalAlign=middle;spacingLeft=4;spacingRight=4;overflow=hidden;points=[[0,0.5],[1,0.5]];portConstraint=eastwest;rotatable=0;whiteSpace=wrap;html=1;" vertex="1" parent="4PpkzsIRz_B8Op7dX_ft-4">
          <mxGeometry y="90" width="310" height="270" as="geometry" />
        </mxCell>
        <mxCell id="4PpkzsIRz_B8Op7dX_ft-14" value="Auth" style="swimlane;fontStyle=0;childLayout=stackLayout;horizontal=1;startSize=30;horizontalStack=0;resizeParent=1;resizeParentMax=0;resizeLast=0;collapsible=1;marginBottom=0;whiteSpace=wrap;html=1;" vertex="1" parent="1">
          <mxGeometry x="300" y="10" width="140" height="120" as="geometry" />
        </mxCell>
        <mxCell id="4PpkzsIRz_B8Op7dX_ft-15" value="login: String" style="text;strokeColor=none;fillColor=none;align=left;verticalAlign=middle;spacingLeft=4;spacingRight=4;overflow=hidden;points=[[0,0.5],[1,0.5]];portConstraint=eastwest;rotatable=0;whiteSpace=wrap;html=1;" vertex="1" parent="4PpkzsIRz_B8Op7dX_ft-14">
          <mxGeometry y="30" width="140" height="30" as="geometry" />
        </mxCell>
        <mxCell id="4PpkzsIRz_B8Op7dX_ft-16" value="Password: String" style="text;strokeColor=none;fillColor=none;align=left;verticalAlign=middle;spacingLeft=4;spacingRight=4;overflow=hidden;points=[[0,0.5],[1,0.5]];portConstraint=eastwest;rotatable=0;whiteSpace=wrap;html=1;" vertex="1" parent="4PpkzsIRz_B8Op7dX_ft-14">
          <mxGeometry y="60" width="140" height="30" as="geometry" />
        </mxCell>
        <mxCell id="4PpkzsIRz_B8Op7dX_ft-17" value="compId: uuid (autogenerate)" style="text;strokeColor=none;fillColor=none;align=left;verticalAlign=middle;spacingLeft=4;spacingRight=4;overflow=hidden;points=[[0,0.5],[1,0.5]];portConstraint=eastwest;rotatable=0;whiteSpace=wrap;html=1;" vertex="1" parent="4PpkzsIRz_B8Op7dX_ft-14">
          <mxGeometry y="90" width="140" height="30" as="geometry" />
        </mxCell>
      </root>
    </mxGraphModel>
  </diagram>
</mxfile>
